<?xml version="1.0" encoding="utf-8"?>
<!-- Generator: Adobe Illustrator 19.1.0, SVG Export Plug-In . SVG Version: 6.00 Build 0)  -->
<svg version="1.1" id="Layer_1" xmlns="http://www.w3.org/2000/svg" xmlns:xlink="http://www.w3.org/1999/xlink" x="0px" y="0px"
	 viewBox="0 0 288 195.6" style="enable-background:new 0 0 288 195.6;" xml:space="preserve">
<g>
	<path d="M146.7,48.9V0H0v146.7h141.3v48.9H288V48.9H146.7z M141.4,69.3h-21.2v10.2h18.5V87h-18.5v18.3h-9.7V92.9
		c-0.2,3.6-1.8,6.6-4.6,9.1c-3.1,2.7-7.5,4-13.2,4c-5.8,0-10.3-1.3-13.6-3.9c-3.3-2.6-5-6.2-5-10.8h8.8c0.3,2,0.8,3.5,1.7,4.5
		c1.5,1.8,4.1,2.7,7.8,2.7c2.2,0,4-0.2,5.4-0.7c2.6-0.9,3.9-2.6,3.9-5.1c0-1.4-0.6-2.6-1.9-3.4c-1.3-0.8-3.3-1.5-6.1-2.1l-4.8-1
		c-4.7-1-7.9-2.2-9.6-3.4c-0.2-0.2-0.4-0.3-0.6-0.5c-3.4,3.1-7.9,4.8-13.3,4.8c-13.1,0-21-9.3-21.7-21.2v3.4
		c0,12-7.1,17.8-18.9,17.8c-11.9,0-18.8-5.8-18.8-17.8V41.9v0h9.7v27.5c0,4.8,1.2,9.6,9.1,9.6c6.9,0,9.2-3,9.2-9.6V41.9h9.7v20.5
		c0.7-12.2,8.6-21.5,21.7-21.5c9.7,0,17.9,5.7,19.1,15.9h-9.4C74.3,52.3,70,49,65.2,49c-8.7,0-12,7.4-12,15.2
		c0,7.4,3.3,14.8,12,14.8c5.5,0,8.7-3.4,9.8-8.5c0.1-0.5,0.2-0.9,0.4-1.4h0c0.7-2.1,1.9-4,3.7-5.6c2.9-2.6,7.2-3.9,12.8-3.9
		c4.7,0,8.7,1.2,12,3.7c3.3,2.5,5,6,5.2,10.7h-8.8c-0.2-2.6-1.3-4.5-3.5-5.6c-1.5-0.7-3.3-1.1-5.5-1.1c-2.4,0-4.4,0.5-5.8,1.4
		c-0.3,0.2-0.5,0.3-0.7,0.5l0,0c0,0,0,0-0.1,0.1v0c-1,0.9-1.4,2-1.4,3.4c0,0.6,0.1,1.2,0.4,1.7c0,0,0,0,0,0l0,0
		c0.3,0.7,0.9,1.3,1.8,1.8c0.9,0.5,2.9,1.1,5.8,1.8l7.7,1.8c3.4,0.8,5.9,1.9,7.6,3.2c2.4,1.9,3.7,4.7,3.9,8.2V61.1h30.9V69.3z
		 M282.6,190.2H146.7v-43.5V54.4h135.9V190.2z"/>
	<polygon points="158.2,117.7 160.8,117.7 160.8,100 167.4,100 167.4,97.8 151.5,97.8 151.5,100 158.2,100 	"/>
	<path d="M171.6,109.6c0-0.6,0.1-1.2,0.3-1.8c0.2-0.5,0.4-1,0.8-1.4c0.4-0.4,0.8-0.7,1.3-0.9c0.5-0.2,1.2-0.3,1.9-0.3
		c0.9,0,1.6,0.3,2.1,0.8c0.5,0.5,0.8,1.2,0.8,2.1v9.7h2.4v-9.5c0-0.8-0.1-1.5-0.2-2.1c-0.2-0.6-0.4-1.2-0.8-1.7
		c-0.4-0.5-0.9-0.8-1.5-1.1c-0.6-0.3-1.4-0.4-2.4-0.4c-0.4,0-0.9,0-1.3,0.1c-0.5,0.1-0.9,0.2-1.3,0.4c-0.4,0.2-0.8,0.4-1.1,0.8
		c-0.3,0.3-0.6,0.7-0.8,1.1h-0.1v-7.6h-2.4v19.9h2.4V109.6z"/>
	<path d="M185.7,115.9c0.6,0.7,1.3,1.2,2.1,1.6c0.8,0.4,1.8,0.6,3,0.6c1.6,0,3-0.4,4.1-1.2c1.1-0.8,1.8-2,2.1-3.6h-2.3
		c-0.2,0.9-0.6,1.7-1.3,2.1c-0.6,0.5-1.5,0.7-2.5,0.7c-0.8,0-1.5-0.1-2-0.4c-0.6-0.3-1-0.6-1.4-1c-0.4-0.4-0.6-0.9-0.8-1.5
		c-0.2-0.6-0.2-1.2-0.2-1.8h10.8c0-0.9,0-1.8-0.2-2.8c-0.2-1-0.5-1.9-1.1-2.7c-0.5-0.8-1.2-1.5-2-2c-0.8-0.5-1.9-0.8-3.2-0.8
		c-1,0-1.9,0.2-2.7,0.6c-0.8,0.4-1.5,0.9-2.1,1.6c-0.6,0.7-1.1,1.5-1.4,2.4c-0.3,0.9-0.5,1.9-0.5,3c0,1.1,0.2,2.1,0.5,3
		C184.7,114.4,185.1,115.2,185.7,115.9z M186.8,107.5c0.2-0.5,0.5-0.9,0.8-1.3c0.4-0.4,0.8-0.7,1.3-0.9c0.5-0.2,1-0.3,1.7-0.3
		c0.6,0,1.1,0.1,1.6,0.3c0.5,0.2,0.9,0.5,1.3,0.9c0.4,0.4,0.6,0.8,0.9,1.3c0.2,0.5,0.3,1,0.4,1.6h-8.3
		C186.5,108.6,186.6,108,186.8,107.5z"/>
	<path d="M164.6,126.5c-0.9-0.3-1.9-0.4-2.9-0.4c-1.5,0-2.9,0.3-4,0.8c-1.2,0.5-2.2,1.3-3,2.2c-0.8,0.9-1.4,2.1-1.8,3.3
		c-0.4,1.3-0.6,2.6-0.6,4.1c0,1.4,0.2,2.8,0.6,4.1c0.4,1.3,1,2.4,1.7,3.3c0.8,0.9,1.7,1.7,2.9,2.2c1.2,0.5,2.5,0.8,4,0.8
		c2.5,0,4.5-0.7,6-2.1c1.5-1.4,2.3-3.3,2.6-5.8h-2.6c-0.1,0.8-0.2,1.6-0.5,2.3c-0.3,0.7-0.7,1.3-1.2,1.8c-0.5,0.5-1.1,0.9-1.8,1.2
		c-0.7,0.3-1.5,0.4-2.3,0.4c-1.2,0-2.2-0.2-3.1-0.7c-0.9-0.4-1.6-1-2.1-1.8c-0.5-0.8-1-1.6-1.2-2.6c-0.3-1-0.4-2.1-0.4-3.2
		c0-1,0.1-2,0.4-3c0.3-1,0.7-1.8,1.2-2.6c0.5-0.8,1.2-1.3,2.1-1.8c0.8-0.4,1.9-0.7,3-0.7c1.4,0,2.6,0.4,3.6,1.1c1,0.7,1.7,1.8,2,3.2
		h2.6c-0.1-1.1-0.5-2-0.9-2.8c-0.5-0.8-1.1-1.5-1.8-2C166.4,127.2,165.6,126.8,164.6,126.5z"/>
	<path d="M178.8,131.7c-0.8,0-1.6,0.1-2.3,0.3c-0.7,0.2-1.3,0.4-1.9,0.8c-0.6,0.4-1,0.9-1.3,1.5c-0.3,0.6-0.5,1.4-0.6,2.3h2.4
		c0.1-1.1,0.4-1.8,1.1-2.2c0.7-0.4,1.5-0.6,2.5-0.6c0.4,0,0.7,0,1.1,0.1c0.4,0.1,0.7,0.2,1,0.3c0.3,0.2,0.6,0.4,0.8,0.7
		c0.2,0.3,0.3,0.7,0.3,1.3c0,0.4-0.1,0.8-0.4,1c-0.3,0.2-0.6,0.4-1.1,0.5c-0.4,0.1-1,0.2-1.5,0.3c-0.6,0.1-1.2,0.2-1.8,0.3
		c-0.6,0.1-1.2,0.3-1.8,0.4c-0.6,0.2-1.1,0.4-1.6,0.7c-0.5,0.3-0.8,0.7-1.1,1.3c-0.3,0.5-0.4,1.2-0.4,2c0,0.7,0.1,1.3,0.4,1.9
		c0.3,0.5,0.6,0.9,1,1.2c0.4,0.3,0.9,0.5,1.5,0.7c0.6,0.1,1.2,0.2,1.9,0.2c1,0,1.9-0.2,2.8-0.5c0.9-0.3,1.6-0.9,2.3-1.7
		c0,0.8,0.2,1.3,0.5,1.7c0.4,0.3,0.8,0.5,1.5,0.5c0.7,0,1.3-0.1,1.7-0.4v-1.8c-0.3,0.1-0.5,0.1-0.7,0.1c-0.4,0-0.6-0.1-0.7-0.4
		c-0.1-0.3-0.1-0.7-0.1-1.2v-7.4c0-0.8-0.2-1.5-0.5-2c-0.3-0.5-0.7-0.9-1.3-1.2c-0.5-0.3-1.1-0.5-1.7-0.6
		C180.1,131.8,179.5,131.7,178.8,131.7z M181.9,141.4c0,0.3-0.1,0.7-0.3,1.1c-0.2,0.4-0.4,0.7-0.8,1.1c-0.4,0.3-0.8,0.6-1.4,0.8
		c-0.6,0.2-1.2,0.3-2,0.3c-0.4,0-0.7,0-1.1-0.1c-0.3-0.1-0.6-0.2-0.9-0.4c-0.3-0.2-0.5-0.4-0.6-0.7c-0.2-0.3-0.2-0.6-0.2-1
		c0-0.6,0.1-1.1,0.4-1.4c0.3-0.3,0.6-0.6,1-0.8c0.4-0.2,0.9-0.3,1.4-0.4c0.5-0.1,1.1-0.2,1.6-0.2c0.5-0.1,1-0.1,1.5-0.2
		c0.5-0.1,0.9-0.3,1.2-0.5V141.4z"/>
	<path d="M190.2,134.2L190.2,134.2l-0.1-2.1h-2.2v14.4h2.4v-9c0-0.3,0.1-0.6,0.2-1s0.4-0.8,0.7-1.2c0.3-0.4,0.7-0.7,1.2-1
		c0.5-0.3,1.1-0.4,1.8-0.4c0.5,0,1,0.1,1.3,0.2c0.3,0.2,0.6,0.4,0.8,0.7c0.2,0.3,0.3,0.6,0.4,1c0.1,0.4,0.1,0.8,0.1,1.3v9.4h2.4v-9
		c0-1.1,0.3-2,1-2.7c0.7-0.7,1.6-1,2.8-1c0.6,0,1,0.1,1.4,0.3c0.4,0.2,0.6,0.4,0.8,0.7c0.2,0.3,0.3,0.6,0.4,1
		c0.1,0.4,0.1,0.8,0.1,1.3v9.4h2.4v-10.5c0-0.7-0.1-1.4-0.3-1.9c-0.2-0.5-0.6-1-1-1.3c-0.4-0.3-0.9-0.6-1.5-0.7
		c-0.6-0.2-1.2-0.2-2-0.2c-0.9,0-1.8,0.2-2.6,0.6c-0.8,0.4-1.4,1-1.9,1.8c-0.3-0.9-0.8-1.5-1.5-1.9c-0.7-0.4-1.5-0.6-2.4-0.6
		C192.8,131.7,191.3,132.6,190.2,134.2z"/>
	<path d="M214.1,144.5L214.1,144.5c0.3,0.4,0.6,0.8,1,1.1c0.4,0.3,0.8,0.5,1.2,0.7c0.4,0.2,0.9,0.3,1.3,0.4c0.4,0.1,0.8,0.1,1.2,0.1
		c1.1,0,2.1-0.2,2.9-0.6c0.8-0.4,1.5-0.9,2.1-1.6c0.5-0.7,1-1.5,1.2-2.4c0.3-0.9,0.4-1.9,0.4-2.9c0-1-0.1-2-0.4-2.9
		c-0.3-0.9-0.7-1.7-1.2-2.4c-0.5-0.7-1.2-1.2-2.1-1.7c-0.8-0.4-1.8-0.6-2.9-0.6c-1,0-1.9,0.2-2.8,0.5c-0.8,0.4-1.4,0.9-1.8,1.7h-0.1
		v-1.9h-2.4v19.9h2.4V144.5z M214.2,137.3c0.2-0.6,0.4-1.2,0.8-1.7c0.4-0.5,0.8-0.9,1.4-1.2c0.6-0.3,1.2-0.5,2-0.5
		c0.8,0,1.4,0.1,2,0.4c0.6,0.3,1,0.7,1.4,1.2c0.4,0.5,0.6,1.1,0.8,1.7c0.2,0.6,0.3,1.3,0.3,2c0,0.7-0.1,1.4-0.2,2.1
		c-0.1,0.7-0.4,1.3-0.7,1.8c-0.3,0.5-0.8,0.9-1.3,1.3s-1.2,0.5-2,0.5c-0.8,0-1.5-0.2-2.1-0.5c-0.6-0.3-1-0.7-1.4-1.2
		c-0.4-0.5-0.6-1.1-0.8-1.7c-0.2-0.7-0.3-1.3-0.3-2C214,138.6,214.1,137.9,214.2,137.3z"/>
	<path d="M228.8,145.9c0.4,0.3,0.9,0.5,1.5,0.7c0.6,0.1,1.2,0.2,1.9,0.2c1,0,1.9-0.2,2.8-0.5c0.9-0.3,1.6-0.9,2.3-1.7
		c0,0.8,0.2,1.3,0.5,1.7c0.4,0.3,0.8,0.5,1.5,0.5c0.7,0,1.3-0.1,1.7-0.4v-1.8c-0.3,0.1-0.5,0.1-0.7,0.1c-0.4,0-0.6-0.1-0.7-0.4
		c-0.1-0.3-0.1-0.7-0.1-1.2v-7.4c0-0.8-0.2-1.5-0.5-2c-0.3-0.5-0.7-0.9-1.3-1.2c-0.5-0.3-1.1-0.5-1.7-0.6c-0.6-0.1-1.3-0.1-1.9-0.1
		c-0.8,0-1.6,0.1-2.3,0.3c-0.7,0.2-1.3,0.4-1.9,0.8c-0.6,0.4-1,0.9-1.3,1.5c-0.3,0.6-0.5,1.4-0.6,2.3h2.4c0.1-1.1,0.4-1.8,1.1-2.2
		c0.7-0.4,1.5-0.6,2.5-0.6c0.4,0,0.7,0,1.1,0.1c0.4,0.1,0.7,0.2,1,0.3c0.3,0.2,0.6,0.4,0.8,0.7c0.2,0.3,0.3,0.7,0.3,1.3
		c0,0.4-0.1,0.8-0.4,1c-0.3,0.2-0.6,0.4-1.1,0.5c-0.4,0.1-1,0.2-1.5,0.3c-0.6,0.1-1.2,0.2-1.8,0.3c-0.6,0.1-1.2,0.3-1.8,0.4
		c-0.6,0.2-1.1,0.4-1.6,0.7c-0.5,0.3-0.8,0.7-1.1,1.3c-0.3,0.5-0.4,1.2-0.4,2c0,0.7,0.1,1.3,0.4,1.9
		C228,145.1,228.3,145.5,228.8,145.9z M230.3,141.2c0.3-0.3,0.6-0.6,1-0.8c0.4-0.2,0.9-0.3,1.4-0.4c0.5-0.1,1.1-0.2,1.6-0.2
		c0.5-0.1,1-0.1,1.5-0.2c0.5-0.1,0.9-0.3,1.2-0.5v2.4c0,0.3-0.1,0.7-0.3,1.1c-0.2,0.4-0.4,0.7-0.8,1.1c-0.4,0.3-0.8,0.6-1.4,0.8
		c-0.6,0.2-1.2,0.3-2,0.3c-0.4,0-0.7,0-1.1-0.1c-0.3-0.1-0.6-0.2-0.9-0.4c-0.3-0.2-0.5-0.4-0.6-0.7c-0.2-0.3-0.2-0.6-0.2-1
		C229.9,142,230,141.5,230.3,141.2z"/>
	<rect x="243.2" y="126.6" width="2.4" height="2.9"/>
	<rect x="243.2" y="132.1" width="2.4" height="14.4"/>
	<path d="M250.1,144.4c0.5,0.7,1.2,1.2,2,1.6c0.8,0.4,1.7,0.6,2.8,0.6c0.9,0,1.8-0.2,2.6-0.6c0.8-0.4,1.4-1.1,1.8-2h0.1v0.9
		c0,0.8-0.1,1.5-0.2,2.2c-0.2,0.7-0.4,1.2-0.8,1.7c-0.4,0.5-0.8,0.8-1.3,1.1c-0.5,0.3-1.2,0.4-2,0.4c-0.4,0-0.8,0-1.2-0.1
		c-0.4-0.1-0.8-0.2-1.2-0.4c-0.4-0.2-0.7-0.4-0.9-0.7c-0.3-0.3-0.4-0.7-0.4-1.1H249c0,0.8,0.2,1.4,0.6,2c0.4,0.5,0.8,1,1.4,1.3
		c0.6,0.3,1.2,0.6,1.9,0.7c0.7,0.1,1.4,0.2,2,0.2c2.3,0,4-0.6,5.1-1.8c1.1-1.2,1.6-2.9,1.6-5.3v-13.2h-2.2v2.1h0
		c-0.4-0.8-1-1.4-1.8-1.8c-0.8-0.4-1.6-0.6-2.5-0.6c-1.2,0-2.3,0.2-3.1,0.7c-0.9,0.5-1.5,1.1-2.1,1.8c-0.5,0.7-0.9,1.5-1.1,2.4
		c-0.2,0.9-0.3,1.8-0.3,2.6c0,1,0.1,1.9,0.4,2.8C249.2,143,249.6,143.8,250.1,144.4z M251.2,137.1c0.2-0.6,0.4-1.2,0.8-1.7
		c0.3-0.5,0.8-0.9,1.3-1.2c0.5-0.3,1.2-0.4,1.9-0.4c0.7,0,1.4,0.1,1.9,0.4c0.5,0.3,0.9,0.7,1.3,1.2c0.3,0.5,0.6,1,0.7,1.7
		c0.1,0.6,0.2,1.2,0.2,1.9c0,0.7-0.1,1.3-0.2,2c-0.2,0.7-0.4,1.3-0.7,1.8c-0.3,0.5-0.8,1-1.3,1.3c-0.5,0.3-1.2,0.5-2,0.5
		c-0.8,0-1.4-0.2-1.9-0.5c-0.5-0.3-0.9-0.8-1.3-1.3s-0.5-1.1-0.7-1.8c-0.1-0.6-0.2-1.3-0.2-1.9C251,138.4,251.1,137.7,251.2,137.1z"
		/>
	<path d="M267.6,138.3c0-0.6,0.1-1.2,0.3-1.8c0.2-0.5,0.4-1,0.8-1.4c0.4-0.4,0.8-0.7,1.3-0.9c0.5-0.2,1.2-0.3,1.9-0.3
		c0.9,0,1.6,0.3,2.1,0.8c0.5,0.5,0.8,1.2,0.8,2.1v9.7h2.4V137c0-0.8-0.1-1.5-0.2-2.1c-0.2-0.6-0.4-1.2-0.8-1.7
		c-0.4-0.5-0.9-0.8-1.5-1.1c-0.6-0.3-1.4-0.4-2.4-0.4c-2.1,0-3.7,0.9-4.7,2.6h-0.1v-2.3h-2.2v14.4h2.4V138.3z"/>
</g>
</svg>
